<svg width="24" height="24" viewBox="0 0 24 24" fill="none" xmlns="http://www.w3.org/2000/svg">
<path d="M10.29 2.85996L1.82 17C1.64537 17.3024 1.55297 17.6453 1.55199 17.9945C1.55101 18.3437 1.64149 18.6871 1.81443 18.9905C1.98736 19.2939 2.23673 19.5467 2.53771 19.7238C2.83869 19.9009 3.1808 19.9961 3.53 20H20.47C20.8192 19.9961 21.1613 19.9009 21.4623 19.7238C21.7633 19.5467 22.0126 19.2939 22.1856 18.9905C22.3585 18.6871 22.449 18.3437 22.448 17.9945C22.447 17.6453 22.3546 17.3024 22.18 17L13.71 2.85996C13.5317 2.56607 13.2807 2.32308 12.9812 2.15444C12.6817 1.98581 12.3437 1.89722 12 1.89722C11.6563 1.89722 11.3183 1.98581 11.0188 2.15444C10.7193 2.32308 10.4683 2.56607 10.29 2.85996V2.85996Z" stroke="#E65C6F" stroke-width="2" stroke-linecap="round" stroke-linejoin="round"/>
<path d="M12 8V12" stroke="#E65C6F" stroke-width="2" stroke-linecap="round" stroke-linejoin="round"/>
<path d="M12 16H12.01" stroke="#E65C6F" stroke-width="2" stroke-linecap="round" stroke-linejoin="round"/>
</svg>
